<?xml version="1.0" encoding="iso-8859-1"?>
<!-- Generator: Adobe Illustrator 16.0.0, SVG Export Plug-In . SVG Version: 6.00 Build 0)  -->
<!DOCTYPE svg PUBLIC "-//W3C//DTD SVG 1.1//EN" "http://www.w3.org/Graphics/SVG/1.1/DTD/svg11.dtd">
<svg version="1.1" id="Capa_1" xmlns="http://www.w3.org/2000/svg" xmlns:xlink="http://www.w3.org/1999/xlink" x="0px" y="0px"
	 width="16" height="16" fill="white" viewBox="0 0 423.922 423.922" style="enable-background:new 0 0 423.922 423.922;"
	 xml:space="preserve">
<g>
	<g>
		<path d="M410.276,46.095c-25.287,29.899-89.178,83.519-220.302,79.217H59.296C26.549,125.312,0,151.869,0,184.604v14.828
			c0,32.749,26.549,59.29,59.296,59.29h32.43L160.628,372.1c6.798,11.2,21.832,15.572,33.582,9.773l28.591-14.105
			c11.754-5.771,15.749-19.541,8.925-30.726l-47.823-78.329h6.051c131.129-4.292,195.031,49.319,220.298,79.227
			c8.472,10.011,13.67,8.74,13.67-4.363V50.465C423.922,37.363,418.724,36.09,410.276,46.095z M117.592,217.461H55.329
			c-4.905,0-8.893-3.983-8.893-8.899c0-4.907,3.988-8.895,8.893-8.895h62.263c4.915,0,8.893,3.987,8.893,8.895
			C126.484,213.478,122.507,217.461,117.592,217.461z M117.592,177.933H55.329c-4.905,0-8.893-3.977-8.893-8.892
			c0-4.907,3.988-8.901,8.893-8.901h62.263c4.915,0,8.893,3.994,8.893,8.901C126.484,173.956,122.507,177.933,117.592,177.933z"/>
	</g>
</g>
<g>
</g>
<g>
</g>
<g>
</g>
<g>
</g>
<g>
</g>
<g>
</g>
<g>
</g>
<g>
</g>
<g>
</g>
<g>
</g>
<g>
</g>
<g>
</g>
<g>
</g>
<g>
</g>
<g>
</g>
</svg>
